<?xml version="1.0" encoding="UTF-8"?>
<svg version="1.1" xmlns="http://www.w3.org/2000/svg" width="100" height="100">
<path d="M0 0 C0.91047089 -0.00145523 1.82094177 -0.00291046 2.75900269 -0.00440979 C4.67351499 -0.00275746 6.58804151 0.00872881 8.50244141 0.02954102 C11.427983 0.05857683 14.35171893 0.05011979 17.27734375 0.03710938 C19.14323794 0.04334524 21.00912644 0.05173499 22.875 0.0625 C24.18139938 0.05809654 24.18139938 0.05809654 25.51419067 0.05360413 C31.29052242 0.14318474 34.59303126 1.17181698 39.0546875 4.99609375 C41.74074422 8.21936181 41.42618226 11.62722005 41.41821289 15.61987305 C41.41809959 17.51149422 41.41809959 17.51149422 41.41798401 19.44132996 C41.41287739 20.81765787 41.40766139 22.19398538 41.40234375 23.5703125 C41.40047836 24.97849986 41.39905503 26.38668786 41.39805603 27.7948761 C41.39424038 31.49876705 41.38441822 35.2026187 41.37335205 38.90649414 C41.36311747 42.68700631 41.35855402 46.46752484 41.35351562 50.24804688 C41.3427951 57.6640804 41.3257301 65.08008157 41.3046875 72.49609375 C36.81608895 68.74102802 32.54342602 64.86787152 28.44140625 60.6953125 C27.92334915 60.17346878 27.40529205 59.65162506 26.87153625 59.1139679 C25.24259023 57.47296073 23.61698681 55.82870608 21.9921875 54.18359375 C19.83229562 51.99713416 17.66912032 49.81400021 15.50390625 47.6328125 C15.0112175 47.13182541 14.51852875 46.63083832 14.01091003 46.1146698 C11.41282267 43.46937357 11.41282267 43.46937357 8.3046875 41.49609375 C14.21343376 48.60369607 20.72876292 55.10633896 27.25854492 61.63525391 C29.13554219 63.51447014 31.00435639 65.40158998 32.87304688 67.2890625 C34.0646159 68.48356019 35.25665579 69.67758839 36.44921875 70.87109375 C37.00752884 71.43658936 37.56583893 72.00208496 38.1410675 72.5847168 C40.7337798 75.54825258 40.7337798 75.54825258 44.3046875 76.49609375 C44.37448179 68.56776803 44.42764698 60.63957265 44.46012402 52.71101475 C44.47571864 49.02866759 44.49684183 45.34653205 44.53100586 41.66430664 C44.56382291 38.104608 44.58158706 34.54511172 44.58931923 30.98527336 C44.5974846 28.97966201 44.62086767 26.97413102 44.64457703 24.96864319 C44.64627002 15.6994284 43.57658016 8.27841149 38.3046875 0.49609375 C46.41902818 -0.12719842 52.67010793 -0.35830287 59.4375 4.5 C66.04887997 11.56781416 65.91943709 18.08021641 65.90625 27.42578125 C65.91403893 28.78427649 65.92271133 30.14276693 65.93222046 31.50125122 C65.94708965 34.34067612 65.9466041 37.17960346 65.93603516 40.01904297 C65.92445789 43.63622845 65.95829564 47.25136146 66.0047245 50.86820793 C66.03436624 53.67208516 66.03592049 56.4754776 66.02970505 59.2794838 C66.03121433 61.25411269 66.05882547 63.22866697 66.08706665 65.20309448 C66.00560486 73.16784518 65.01050266 78.68789865 59.3046875 84.49609375 C54.27613465 88.90765822 49.0668867 89.07587056 42.609375 88.9921875 C41.69890411 88.99364273 40.78843323 88.99509796 39.85037231 88.99659729 C37.93586001 88.99494496 36.02133349 88.98345869 34.10693359 88.96264648 C31.181392 88.93361067 28.25765607 88.94206771 25.33203125 88.95507812 C23.46613706 88.94884226 21.60024856 88.94045251 19.734375 88.9296875 C18.86344208 88.93262314 17.99250916 88.93555878 17.09518433 88.93858337 C12.35317492 88.86504325 9.10048016 88.6326623 5.3046875 85.49609375 C1.64296525 81.65661902 0.8089335 79.33291361 0.85058594 74.0534668 C0.85103912 72.13204109 0.85103912 72.13204109 0.85150146 70.17179871 C0.87192497 68.78379691 0.8927889 67.39580153 0.9140625 66.0078125 C0.92152847 64.58007094 0.92721972 63.15231909 0.93121338 61.7245636 C0.94644203 57.97768564 0.98569873 54.23143384 1.0300293 50.48480225 C1.07104254 46.65727203 1.08923723 42.82964003 1.109375 39.00195312 C1.15219673 31.4997154 1.22041314 23.99799251 1.3046875 16.49609375 C5.79328605 20.25115948 10.06594898 24.12431598 14.16796875 28.296875 C14.68602585 28.81871872 15.20408295 29.34056244 15.73783875 29.8782196 C17.36678477 31.51922677 18.99238819 33.16348142 20.6171875 34.80859375 C22.77707938 36.99505334 24.94025468 39.17818729 27.10546875 41.359375 C27.5981575 41.86036209 28.09084625 42.36134918 28.59846497 42.8775177 C31.19655233 45.52281393 31.19655233 45.52281393 34.3046875 47.49609375 C28.39594124 40.38849143 21.88061208 33.88584854 15.35083008 27.35693359 C13.47383281 25.47771736 11.60501861 23.59059752 9.73632812 21.703125 C8.5447591 20.50862731 7.35271921 19.31459911 6.16015625 18.12109375 C5.60184616 17.55559814 5.04353607 16.99010254 4.4683075 16.4074707 C1.8755952 13.44393492 1.8755952 13.44393492 -1.6953125 12.49609375 C-1.74180706 20.44170908 -1.77726821 28.38726685 -1.79893684 36.33298492 C-1.80934063 40.02314587 -1.82343701 43.71321322 -1.84619141 47.40332031 C-1.86804205 50.9694866 -1.87990669 54.53556328 -1.88506699 58.10179138 C-1.89051973 60.11350462 -1.90611288 62.12518219 -1.92190552 64.13684082 C-1.92305145 73.54842264 -1.46050158 80.80917498 4.3046875 88.49609375 C-3.80965318 89.11938592 -10.06073293 89.35049037 -16.828125 84.4921875 C-23.43950497 77.42437334 -23.31006209 70.91197109 -23.296875 61.56640625 C-23.30466393 60.20791101 -23.31333633 58.84942057 -23.32284546 57.49093628 C-23.33771465 54.65151138 -23.3372291 51.81258404 -23.32666016 48.97314453 C-23.31508289 45.35595905 -23.34892064 41.74082604 -23.3953495 38.12397957 C-23.42499124 35.32010234 -23.42654549 32.5167099 -23.42033005 29.7127037 C-23.42183933 27.73807481 -23.44945047 25.76352053 -23.47769165 23.78909302 C-23.39622986 15.82434232 -22.40112766 10.30428885 -16.6953125 4.49609375 C-11.66675965 0.08452928 -6.4575117 -0.08368306 0 0 Z " fill="#000000" transform="translate(28.6953125,5.50390625)"/>
</svg>
